# xmcd
#
# Track frame offsets:
#	150
#	30806
#	50630
#	68196
#	90487
#	103429
#	119553
#	135262
#	149887
#	167343
#	181700
#	196755
#	211763
#	229531
#	247393
#	258390
#	272186
#	283064
#	300253
#	312815
#
# Disc length: 4326 seconds
#
# Revision: 0
# Processed by: cddbd v1.5.2PL0 Copyright (c) Steve Scherf et al.
# Submitted via: audiograbber 1.83.01
#
DISCID=1c10e414
DTITLE=VARIS - Engresca't CD Nº 3
DYEAR=1900
DGENRE=
TTITLE0=Quico - Es cantaba i es canta
TTITLE1=Lax'n Busto - Per una copa
TTITLE2=Els Pets - Vina a la festa
TTITLE3=Electrica D'Harma - Ball llunatic
TTITLE4=El Cant dels maulets
TTITLE5=Cap on nam - Anem a xauxa
TTITLE6=METROPOL - Amunt i avall
TTITLE7=Brams - De bar en bar
TTITLE8=Aj, Aj, Aj - Dimoni pelut
TTITLE9=Dr. Calipso - 2.300 milions
TTITLE10=Orquestrina D'algada - Gran Bola de foc
TTITLE11=Conjunt Pomada - Maria Mercè
TTITLE12=Conjunt Mesclat - com goses?
TTITLE13=Ocults - Pa amb oli nacional
TTITLE14=Els Pets - Esta plovent
TTITLE15=Marcel and Sa Pricipal de Sa Nit - Jokatiquetá
TTITLE16=Tomeu Penya - Es cant de sa part forana
TTITLE17=Quimi Portet - Rius de Babilon
TTITLE18=Adriá Punti - Senyor Doctor
TTITLE19=La Queta - El Catala va amb tu
EXTD=
EXTT0=
EXTT1=
EXTT2=
EXTT3=
EXTT4=
EXTT5=
EXTT6=
EXTT7=
EXTT8=
EXTT9=
EXTT10=
EXTT11=
EXTT12=
EXTT13=
EXTT14=
EXTT15=
EXTT16=
EXTT17=
EXTT18=
EXTT19=
PLAYORDER=
